<svg version="1.1" xmlns="http://www.w3.org/2000/svg" xmlns:xlink="http://www.w3.org/1999/xlink" width="195.75849" height="102.58459" viewBox="0,0,195.75849,102.58459"><g transform="translate(-139.2674,-147.78004)"><g data-paper-data="{&quot;isPaintingLayer&quot;:true}" fill-rule="nonzero" stroke="none" stroke-width="1.3401" stroke-linecap="butt" stroke-linejoin="miter" stroke-miterlimit="10" stroke-dasharray="" stroke-dashoffset="0" style="mix-blend-mode: normal"><g><path d="M270.9578,169.8613c-0.1635,4.8056 -2.313,9.386 -6.2623,15.3334c-3.9519,5.9486 -9.6661,7.7524 -13.5564,6.7607c-3.8903,-0.9943 -6.7514,-4.295 -7.5769,-5.7771c-0.8268,-1.4875 5.4542,-12.3222 5.4542,-12.3222c0,0 1.0453,-5.3443 0.3203,-7.5822c-0.725,-2.238 0,-8.8688 0,-8.8688c0.9501,-0.1112 2.3117,-8.8567 10.2973,-8.7441c7.9883,0.1125 9.7318,8.7441 9.7318,8.7441c0,0 1.7568,7.6479 1.592,12.4562z" fill="#8395d4"/><path d="M270.2288,157.4574c-0.7665,0.9729 -1.8346,-1.5934 -2.116,-2.4216c-0.8912,-2.6279 -3.495,-5.1915 -6.8854,-5.6793c-3.306,-0.4771 -6.2261,0.8081 -8.0795,3.0246c-5.296,6.3333 -2.2245,13.5282 -3.3556,20.608c-0.6593,4.1275 -3.4963,7.0676 -4.6715,10.844c-0.4262,1.3669 0.1286,3.5446 1.2784,4.6046c2.3251,2.1495 7.1199,3.1278 10.3951,2.2849c3.8743,-0.9931 6.6067,-4.874 8.3341,-7.6976c1.0707,3.0769 -1.915,6.1055 -4.5858,7.92c-6.0693,4.1302 -19.2585,2.4966 -18.3245,-5.5225c0.4476,-3.8501 4.874,-7.5836 5.8871,-11.8183c1.2878,-5.3859 -1.1525,-10.7757 0.2827,-16.0879c1.0493,-3.8876 3.7764,-9.2547 9.2909,-9.6862c7.463,-0.5829 10.9673,4.0042 12.55,9.6273z" fill="#272525"/></g><g><path d="M185.24052,226.03562c-0.3372,-1.68713 -0.48863,-4.23294 1.03869,-6.02303c1.79769,-2.10475 3.87468,-3.89498 6.73167,-3.03635c-0.11744,0.53899 0.34275,1.13545 0.34275,1.13545c9.19387,5.45484 10.1638,10.52463 10.16502,10.52619c-0.0223,0.23213 -0.02217,0.44691 0.02212,0.62126c0.81569,3.34609 -7.94828,8.17152 -11.0931,7.89676c-1.56186,-0.1347 -3.38446,-0.5181 -4.27161,-2.34299c-1.18558,-2.42943 -0.85437,-12.04715 -2.93554,-8.77728z" fill="#8395d4"/><path d="M202.86247,231.5715c-0.5997,0.84195 -1.51133,1.68406 -2.58674,2.45296c-0.28376,-1.1969 -1.50713,-3.14087 -0.24187,-4.13182c1.11108,-0.87117 2.04173,0.69311 2.82861,1.67886z" fill="#b7cbe7"/><path d="M194.18035,216.18937c0,0 10.48954,6.38947 11.61189,10.99752l-0.00156,0.00122c0.0319,0.06879 0.05,0.13999 0.07778,0.20958c1.2229,3.07023 -1.94176,6.55833 -4.36753,8.04964c-2.43636,1.49945 -5.74464,3.02755 -8.73499,3.46086c-2.41805,0.34973 -4.62781,-0.0146 -5.99239,-1.70474c-1.82598,-2.2665 -1.14926,-3.45405 -1.60031,-6.35744c-0.37358,-2.41025 -1.19431,-2.13343 -0.64717,-3.40744c0.26463,-0.6151 0.50024,-1.07319 0.71054,-1.40474c2.0824,-3.2684 1.74989,6.34915 2.93677,8.77875c0.88725,1.82491 2.70974,2.2083 4.27171,2.34301c0.16436,0.01382 0.34736,0.0083 0.54067,-0.00389c1.55785,-0.10223 3.96974,-1.05096 6.10457,-2.35313c-0.16967,-0.28457 -0.39234,-0.73924 -0.75513,-1.48829c-1.71233,-3.55143 1.98258,-6.31276 4.10594,-4.39403c0.39686,0.35765 0.78764,0.72119 1.12228,1.07912c0.03284,-0.25117 0.03402,-0.49813 -0.02265,-0.73621c-0.04413,-0.17564 -0.04426,-0.39042 -0.02212,-0.62126c0,0 -0.12639,-0.60871 -0.64871,-1.61546c-1.0003,-1.92411 -3.48045,-5.32997 -9.51631,-8.91073c0,0 -0.46019,-0.59646 -0.34275,-1.13545c0.07081,-0.33953 0.37128,-0.65718 1.16947,-0.78686zM200.03386,229.89265c-1.26396,0.99111 -0.0405,2.93509 0.24187,4.13182c1.07402,-0.76908 1.98704,-1.61101 2.58674,-2.45296c-0.78688,-0.98575 -1.71753,-2.55003 -2.82861,-1.67886z" fill="#272525"/></g><g><path d="M234.57249,221.581c2.4629,-0.68317 2.94515,2.16102 3.36451,3.24468c0.60627,1.56456 0.81837,3.29931 0.77076,5.01668c-0.29119,-0.35032 -0.50238,-0.47892 -0.48306,-0.14419c0.31892,5.51898 -3.99894,8.79108 -4.16669,9.33739c-0.9405,3.10268 2.37374,6.74098 -0.33834,8.79763c-0.86739,0.65325 -2.09308,0.42472 -3.04315,0.06447c-4.3459,-1.64459 -8.83674,-6.30662 -8.82896,-11.46421c-0.00177,-3.17388 7.97531,-10.9712 12.13351,-13.67141c0.56565,-0.36602 0.68307,-0.85189 0.59143,-1.18102z" fill="#8395d4"/><path d="M229.67535,247.46211c0.44529,-1.31953 0.78613,-3.54995 2.15931,-2.96885c1.5748,0.66897 1.48974,2.30159 1.40367,3.59851c-0.80097,0.30654 -1.7734,0.10496 -2.56134,-0.19282c-0.33373,-0.1271 -0.66979,-0.27617 -1.00165,-0.43685z" fill="#b7cbe7"/><path d="M222.86392,240.71029c1.15222,-1.14307 2.56923,-2.82155 3.65646,-1.51256c1.66044,2.00025 -0.14556,4.01586 -0.87012,5.38821c-1.13844,-1.12811 -2.10978,-2.44465 -2.78633,-3.87565z" fill="#b7cbe7"/><path d="M219.94233,234.01535c2.4515,-4.59456 8.57994,-10.60491 14.13236,-12.76338c0.23261,-0.08972 0.42999,0.07105 0.50034,0.32808c0.08816,0.32757 -0.02921,0.81352 -0.59116,1.17805c-2.92418,1.8985 -7.72185,6.30981 -10.32172,9.86823c-1.09847,1.50507 -1.81419,2.8628 -1.81373,3.80541c0.00073,0.76369 0.10611,1.51259 0.28726,2.24599c0.57507,-0.52818 1.25994,-1.01167 1.85006,-1.38107c2.58668,-1.62641 6.31793,2.79451 3.96795,6.48564c-0.54479,0.85453 -0.89971,1.44359 -1.17598,1.8258c0.49707,0.40361 1.00988,0.77273 1.53438,1.10033c0.14376,-0.85922 0.60191,-1.85731 1.00984,-2.5993c1.18448,-2.16666 5.12219,-0.657 5.23267,2.6966c0.96595,-2.11209 -1.29382,-5.13023 -0.49611,-7.76895c0.03041,-0.09858 0.19949,-0.28915 0.44994,-0.56447c1.13329,-1.2434 3.9785,-4.25254 3.71768,-8.77039c-0.01977,-0.33594 0.19486,-0.20585 0.48261,0.14298c0.51331,0.61928 1.27246,1.94221 1.43064,2.62559c0.19916,4.03871 -3.32374,7.34409 -3.46863,7.72589c-0.50661,1.3811 0.68673,4.08386 0.8284,6.27708c0.0606,0.93155 -0.06465,1.7752 -0.59746,2.38217c-2.022,2.30655 -6.73416,1.56143 -9.23582,0.44923c-4.36125,-1.93073 -8.02609,-6.3579 -8.79111,-11.35953c-0.15717,-1.02143 0.2517,-2.39609 1.0676,-3.92995zM229.67611,247.46045c0.33232,0.16189 0.66803,0.30971 1.00162,0.43675c0.78671,0.29822 1.75918,0.49991 2.56146,0.19287c0.08606,-1.29693 0.17109,-2.92965 -1.40378,-3.59847c-1.37272,-0.57988 -1.71402,1.64932 -2.15931,2.96885zM222.86225,240.70954c0.67823,1.43176 1.64956,2.7483 2.78801,3.87641c0.72624,-1.37159 2.53178,-3.38841 0.87012,-5.38821c-1.08772,-1.3103 -2.50425,0.36948 -3.65813,1.5118z" fill="#272525"/></g><g><path d="M331.9858,184.4858c-0.8108,1.927 -4.0726,3.2564 -5.9246,4.1328c0,0 -0.0992,0.0697 -0.2158,0.2479c-0.1768,0.2694 -0.3926,0.8027 -0.3604,1.7395c-0.0282,0.0093 -0.0496,0.0134 -0.0778,0.0241c-0.0361,7.9642 -0.4449,16.2594 -7.6211,21.8945c-12.7684,10.0252 -39.6226,3.2175 -47.5238,-9.6085c-6.4217,2.7834 -1.2114,12.416 2.5408,15.328c-2.5033,2.3465 -8.0419,3.8434 -13.9316,-1.0332c-3.4347,2.7539 -7.8731,5.3295 -12.0394,6.9966c-3.889,1.5519 -9.5991,2.3519 -11.7192,2.4886c0,0 -40.3114,3.2899 -61.5385,-14.6258c-5.4006,-4.5577 -6.0907,-5.733 -8.6878,-10.6029c-6.1296,-11.4899 -2.4537,-21.7618 -0.2198,-27.2789c0.004,-0.0054 4.2012,-6.529 7.8623,-9.1851c11.2984,-8.1491 20.0948,-14.6767 37.851,-12.4521c19.3537,2.4242 30.1522,11.2487 30.1522,11.2487c1.3602,-1.3615 5.7436,-4.0028 6.5812,-4.5027c9.4544,-3.8166 13.8003,-2.7673 19.9058,-2.0302c8.0245,0.9715 15.0573,7.1199 18.4115,13.9678c3.0702,6.269 3.9975,18.4504 7.2406,25.7405c-1.9485,-0.4154 -5.7584,-1.4325 -5.607,0.0563c0.1675,1.6524 3.0849,0.6044 5.6673,0.0737c0.1943,0.4289 0.3993,0.8403 0.6111,1.2329c-2.0665,0.26 -5.4033,0.6299 -4.7426,1.8708c0.7424,1.395 2.8316,-0.2466 4.9114,-1.5786c0.524,0.9286 1.0989,1.7528 1.7475,2.4068c2.4457,2.459 6.5222,3.7522 10.5814,4.0216c-1.0359,1.6068 -1.9525,4.2494 -1.1096,4.2736c0.8751,0.0241 1.8627,-2.301 1.974,-4.2267c0.2171,0.0067 0.4248,-0.0054 0.6392,-0.0054c-0.662,2.0571 -0.9823,4.6582 0.4717,4.4224c1.2248,-0.1957 1.1659,-2.6213 0.5642,-4.4304c1.915,-0.075 3.7442,-0.3712 5.3054,-0.8952c1.7636,-0.5923 3.1345,-1.6805 4.1932,-3.0326c0.7893,1.064 2.1602,2.2607 2.4175,1.797c0.2694,-0.4743 -0.8402,-1.6483 -2.0262,-2.329c0.1487,-0.2118 0.2801,-0.4342 0.4141,-0.6567c1.4553,0.7639 3.7348,1.513 3.7375,0.4503c0.0054,-0.8751 -2.0704,-1.1016 -3.5017,-0.851c1.1833,-2.1455 1.7904,-4.6461 1.9941,-6.8733c0.4221,-4.5228 -3.7858,-4.5617 -6.1162,-7.2955c-1.3548,-1.5867 -1.8949,-4.7171 -0.9139,-6.5692c0.662,-1.2422 3.2202,-3.2363 4.8203,-2.7967c2.9897,0.8241 2.9924,8.0285 2.9924,8.0285c3.4936,-7.14 12.3517,-4.4853 10.2893,0.4168z" fill="#8395d4"/><path d="M331.5368,188.6226c-0.9112,0.5052 -2.1254,1.0373 -3.306,1.2999l-0.2492,1.8493c0.1326,0.8872 0.0227,2.0638 0.1031,3.1171c1.3267,7.4469 -2.7525,17.1144 -9.5039,21.4697c-10.1338,6.537 -27.748,4.3526 -37.6996,-1.4594c-3.9077,-2.2835 -7.6171,-5.1111 -10.5197,-8.4198c-1.966,3.7737 3.0634,9.9462 6.6147,11.8866c-1.7328,4.8204 -10.8039,6.5277 -17.7724,2.7995c-6.5061,5.4127 -15.1109,7.7337 -23.6352,8.456c-44.4979,3.3395 -65.268,-17.18 -65.268,-17.18l0.016,-0.0081c-10.9204,-8.0003 -14.2103,-25.2527 -9.6312,-36.3943c0.0281,-0.0723 0.6874,-1.6121 0.7531,-1.6402c3.038,-6.1229 7.8878,-10.2116 7.8878,-10.2116c8.7535,-7.2486 19.7718,-13.7668 31.3716,-14.5762c5.1205,-0.3565 15.7703,0.8992 18.6877,1.8145c0,0 12.7697,2.6668 21.1453,9.5294c0,0 3.0474,-2.313 4.9423,-3.5244c0.2453,-0.1877 0.5294,-0.3498 0.8295,-0.4986c0.1153,-0.0616 0.2212,-0.1125 0.3056,-0.15v0.0013c0.4583,-0.2077 0.9246,-0.3927 1.3253,-0.5682c10.0213,-4.4317 24.1271,-3.0434 32.358,4.0739c8.8835,7.6814 9.4785,15.797 11.5235,26.1533c0.5548,2.8115 3.6276,10.4554 5.4675,12.6492c2.5851,3.0795 7.3264,3.9171 11.2636,3.6517c3.649,-0.2519 8.2402,-4.2977 9.2426,-7.5407c2.3532,-7.6305 -10.1298,-8.9813 -7.6814,-16.6681c0.6834,-2.1482 3.054,-4.5068 5.4689,-5.2291c3.8702,-1.1618 8.1907,-0.2841 7.8168,5.5306c8.4332,-8.5458 16.4295,5.221 8.1437,9.7867zM321.6952,184.0743c0,0 -0.0027,-7.2043 -2.9925,-8.0285c-1.6014,-0.4382 -4.1583,1.5545 -4.8203,2.7968c-0.9809,1.8507 -0.4409,4.9798 0.914,6.5692c2.3304,2.7338 6.5356,2.7713 6.1162,7.2941c-0.2037,2.2272 -0.8108,4.7292 -1.9941,6.8747c1.4312,-0.2466 3.507,-0.0215 3.5017,0.8509c-0.0027,1.0627 -2.2822,0.3123 -3.7376,-0.4502c-0.134,0.2224 -0.268,0.4449 -0.4141,0.658c1.186,0.6794 2.2956,1.8533 2.0263,2.329c-0.26,0.461 -1.6282,-0.7343 -2.4176,-1.7984c-1.0586,1.3535 -2.4309,2.443 -4.1931,3.0313c-1.5612,0.5254 -3.3905,0.8215 -5.3055,0.8952c0.6017,1.8105 0.6607,4.2374 -0.5641,4.4317c-1.454,0.2359 -1.1338,-2.3639 -0.4718,-4.4236c-0.2157,0 -0.4248,0.0134 -0.6392,0.0067c-0.1112,1.923 -1.1002,4.2507 -1.9739,4.2253c-0.843,-0.0201 0.0737,-2.6668 1.1096,-4.2722c-4.0592,-0.2694 -8.1358,-1.5626 -10.5814,-4.0217c-0.6527,-0.6539 -1.2235,-1.4768 -1.7475,-2.4068c-2.0798,1.3334 -4.1691,2.9737 -4.9115,1.5787c-0.6606,-1.241 2.6762,-1.6135 4.7426,-1.8708c-0.2117,-0.3954 -0.4154,-0.8054 -0.6111,-1.2356c-2.5783,0.5307 -5.4997,1.5786 -5.6672,-0.0724c-0.1515,-1.4875 3.6611,-0.4703 5.6069,-0.0562c-3.243,-7.2915 -4.1703,-19.473 -7.2405,-25.7406c-3.3543,-6.8479 -10.3871,-12.9962 -18.4116,-13.9678c-6.1028,-0.7371 -10.4487,-1.7864 -19.9057,2.0302c-0.8376,0.4999 -5.2197,3.1412 -6.5813,4.5028c0,0 -10.7984,-8.8246 -30.1521,-11.2488c-17.7563,-2.2246 -26.5527,4.3017 -37.851,12.4522c-3.6611,2.6574 -7.8583,9.1796 -7.8623,9.185c-2.234,5.5171 -5.9099,15.789 0.2197,27.2803c2.5958,4.8686 3.2859,6.0438 8.6879,10.6028c21.2271,17.9158 61.5385,14.6258 61.5385,14.6258c2.12,-0.1353 7.8302,-0.9367 11.7191,-2.4899c4.1664,-1.667 8.6048,-4.2427 12.0395,-6.9953c5.8883,4.874 11.4296,3.3798 13.9316,1.0333c-3.7523,-2.9107 -8.9639,-12.546 -2.5408,-15.3281c7.9012,12.8274 34.7553,19.6351 47.5238,9.6085c7.1789,-5.6324 7.5889,-13.9289 7.6211,-21.8945c0.0281,-0.008 0.0496,-0.0134 0.0777,-0.0227c-0.0321,-0.9381 0.1836,-1.4701 0.3605,-1.7395c0.1166,-0.1782 0.2158,-0.2466 0.2158,-0.2466c1.852,-0.8777 5.1151,-2.2071 5.9245,-4.1328c2.0638,-4.9101 -6.7943,-7.5648 -10.2892,-0.4195z" fill="#272525"/></g><g><g><path d="M244.6638,178.2369c-0.2225,6.5021 -3.1278,12.7014 -8.4761,20.75c-5.3483,8.0486 -13.078,10.493 -18.3446,9.1502c-5.2665,-1.3428 -9.1381,-5.808 -10.2544,-7.8181c-1.1163,-2.0102 7.3813,-16.6748 7.3813,-16.6748c0,0 1.4151,-7.2312 0.4355,-10.2611c-0.9796,-3.03 0,-12.0019 0,-12.0019c1.2878,-0.1501 3.1264,-11.9859 13.937,-11.8344c10.8079,0.1528 13.1664,11.8344 13.1664,11.8344c0,0 2.3774,10.3509 2.1549,16.8557z" fill="#8395d4"/><path d="M243.6788,161.4535c-1.0372,1.3173 -2.4845,-2.1562 -2.8651,-3.2765c-1.2074,-3.5566 -4.7332,-7.0248 -9.315,-7.6868c-4.4759,-0.6459 -8.4265,1.0935 -10.9352,4.094c-7.1682,8.5712 -3.0139,18.307 -4.5429,27.8901c-0.8912,5.5855 -4.7305,9.5642 -6.3239,14.6754c-0.5776,1.8506 0.1769,4.7935 1.73,6.2274c3.1479,2.908 9.6394,4.2333 14.0697,3.0956c5.2411,-1.3468 8.9398,-6.596 11.2769,-10.4192c1.45,4.1636 -2.589,8.263 -6.2033,10.7207c-8.2175,5.5882 -26.0635,3.3784 -24.7998,-7.471c0.6071,-5.2157 6.5946,-10.2665 7.9642,-15.9967c1.7421,-7.2875 -1.5585,-14.583 0.3833,-21.7739c1.4205,-5.2599 5.1111,-12.5232 12.5727,-13.1061c10.1057,-0.7907 14.847,5.4153 16.9884,13.027z" fill="#272525"/></g><g><path d="M236.1998,180.046c-1.8789,1.5358 -2.9121,2.8075 -3.3824,5.0897c-0.8684,4.2789 -0.2573,7.8771 -3.9453,10.4447c-1.5505,1.0748 -2.5596,2.1066 -4.5094,2.0195c-2.7954,-0.1326 -5.6378,-1.5156 -5.6378,-4.1248c0,-5.5748 5.5668,-7.9454 4.9798,-13.5189c-0.5642,-5.2665 -3.4534,-7.7243 -3.9466,-12.9895c-0.4704,-4.9597 2.6105,-9.8537 7.8918,-10.3576c4.6046,-0.4396 7.8932,1.5585 7.8932,5.5292c0,2.9415 -0.6352,6.1658 0.5628,8.8647c0.9636,2.1737 2.6307,2.8531 3.8528,4.9155c-0.1635,2.0182 -2.1133,2.7874 -3.7589,4.1275z" fill="#b7cbe7"/><path d="M239.6465,174.6441c-0.1327,2.5636 -4.228,-1.9793 -4.5858,-2.4202c-3.239,-3.9868 1.2945,-7.0583 -0.1287,-11.1067c-0.7317,-2.0825 -2.8316,-4.22 -5.6391,-4.3151c-3.3797,-0.1153 -6.2864,3.121 -7.3116,5.4997c-3.1572,7.3384 4.3138,13.9879 2.9536,21.4764c-0.5735,3.1505 -6.4097,8.2268 -4.7962,11.0249c0.5226,0.9046 2.8021,1.7006 3.956,1.6979c9.1019,-0.0254 4.823,-15.2596 14.9099,-18.3043c-0.394,0.9769 -1.3776,1.6295 -2.1335,2.4068c-4.8109,4.9664 -1.8399,12.479 -7.6975,16.8973c-2.1133,1.596 -6.285,1.927 -8.8232,0.8925c-9.5012,-3.881 1.052,-11.3024 2.3881,-14.9193c2.5703,-6.9618 -9.9489,-16.5636 -0.8389,-25.6669c1.7917,-1.789 5.5373,-3.168 8.3542,-2.6654c15.2127,2.715 1.19,13.9866 9.3927,19.5024z" fill="#272525"/></g></g><g><path d="M177.38108,205.79016c1.04478,-1.07999 3.93672,-3.23386 7.54286,1.15211c4.0373,4.91086 2.90543,12.24486 0.51245,17.40181c-0.20868,-0.05178 -4.55097,7.35288 -4.24628,10.57884c0.45616,4.87577 4.89994,7.65672 -0.81707,11.16558c-2.29987,1.4103 -10.72932,-6.13771 -13.85075,-10.7192c-4.06054,-5.95898 -0.53353,-8.48554 1.35926,-12.48615c2.64717,-5.59929 7.81485,-13.10948 9.4942,-16.38356c0.09852,-0.19058 0.08328,-0.49093 0.00534,-0.70942z" fill="#8395d4"/><path d="M177.56019,228.87688c-2.05214,-0.37863 -2.33767,-2.39393 -0.16501,-3.77689c2.34826,0.2681 -0.25719,1.56606 0.07473,2.31615c0.23366,0.52993 0.8639,0.48455 1.29071,0.26599c2.14857,-1.10179 0.46521,-3.48803 -0.97632,-3.68592c-3.51627,-0.47452 -4.34162,5.28328 -0.82307,6.51977c0.90138,0.31534 1.79856,-0.80436 2.46187,-0.14015c-0.57662,3.9382 -9.91046,-3.11537 -4.976,-6.31149c7.39149,-4.78836 8.14168,5.73314 3.1131,4.81254z" fill="#272525"/><path d="M171.85154,241.2288c-1.11079,-1.03256 -2.18413,-2.12426 -3.13554,-3.18015c1.33534,-1.12259 2.96884,-2.70154 4.13112,-1.57205c1.67352,1.62537 -0.04969,3.44821 -0.99558,4.7522z" fill="#b7cbe7"/><path d="M178.30216,245.90999c-0.96892,-0.39742 -2.12176,-1.12217 -3.34446,-2.0493c1.23602,-1.26499 2.85112,-3.57104 4.09781,-2.51908c1.19869,1.01111 -0.08067,3.07256 -0.75335,4.56838z" fill="#b7cbe7"/><path d="M183.02515,248.52444c-0.94651,0.5016 -2.15729,0.46718 -3.51353,0.05378c-5.71385,-1.74167 -14.02543,-10.2512 -16.16914,-14.23159c-0.10904,-0.2015 -0.20647,-0.39599 -0.28207,-0.57259c-2.23408,-5.21229 1.76775,-11.71096 4.46104,-15.73863c0.42053,-0.62756 6.35539,-8.78448 8.44929,-11.54267c0.80374,-1.48999 2.37323,-2.56354 2.37323,-2.56354c1.70085,-0.249 -0.39442,1.95012 -1.3577,3.49513l-0.00321,-0.00239c-2.02446,3.69036 -7.58446,12.37376 -9.1007,15.46009c-1.35788,2.76164 -3.03389,5.89445 -2.7063,9.00207c0.12464,1.17214 0.5238,2.34146 1.34698,3.48415c0.2855,0.39299 0.62064,0.81795 0.97379,1.25471c0.73372,-0.66005 1.73207,-1.29173 2.56294,-1.75239c2.98538,-1.66002 7.02548,2.20377 4.23351,5.75364c-0.58359,0.74341 -0.98193,1.26717 -1.29341,1.63843c0.22821,0.19835 0.45725,0.39558 0.68521,0.58539c0.60116,-0.92407 1.77207,-1.94019 2.71305,-2.6631c2.65871,-2.03355 6.60144,1.12613 4.22352,4.97271c-0.26043,0.41925 -0.46635,0.75876 -0.65352,1.06387c0.14659,-0.02625 0.28963,-0.05676 0.40592,-0.13225c2.81464,-1.79875 3.05181,-3.28634 2.56366,-5.08996c-0.43764,-1.61577 -1.45671,-3.48731 -1.74736,-6.07458c-0.40681,-3.61607 2.23836,-9.54923 4.95875,-12.81678c0,0 0.18967,-0.02584 0.39731,0.02516c0.38997,0.09999 0.83999,0.48519 0.2041,1.89794c-0.02322,0.05128 -4.51585,9.60787 -2.93436,12.68515c4.2886,8.34767 0.19913,11.28402 -0.79102,11.80823zM172.84712,236.4766c-1.16228,-1.1295 -2.795,0.44841 -4.13112,1.57205c0.9514,1.05589 2.02475,2.1476 3.13554,3.18015c0.94589,-1.30399 2.6691,-3.12683 0.99558,-4.7522zM178.30216,245.90999c0.67268,-1.49582 1.95282,-3.55831 0.75335,-4.56838c-1.24669,-1.05197 -2.86179,1.25409 -4.09781,2.51908c1.2227,0.92713 2.37554,1.65188 3.34446,2.0493z" fill="#272525"/></g><g><path d="M251.2826,232.38243c2.77125,0.07544 9.70511,-0.15704 9.61071,2.65735c0.28352,0.58973 -1.71135,4.93921 -8.91933,9.49903c-0.37621,0.25214 -7.07817,4.8934 -9.4929,2.573c-2.79846,-2.68889 1.46593,-12.90301 -7.11684,-19.49921c-0.53798,-0.81615 -1.48767,-0.85999 -2.28687,-0.53183c-0.57994,-2.45405 -0.59217,-6.99776 6.71387,-8.12012c0.00762,0.00549 0.00992,0.02248 0.02147,0.02978c0.16345,0.10252 3.79956,-1.05498 5.78545,0.03254c5.73761,3.14343 5.86364,8.98208 5.68445,13.35946z" fill="#8395d4"/><path d="M254.1348,242.98544c-1.06724,0.83375 -2.18506,1.61362 -3.29283,2.2919c-0.6972,-1.10924 -2.04094,-2.55453 -0.97065,-3.79864c1.11357,-1.29737 2.93749,0.59003 4.26347,1.50675z" fill="#b7cbe7"/><path d="M260.19961,236.79577c-0.67271,1.055 -1.69946,2.25371 -2.93816,3.46664c-1.14424,-1.13225 -3.23284,-2.65915 -1.83281,-4.57242c1.05077,-1.43705 3.20949,0.25312 4.77097,1.10578z" fill="#b7cbe7"/><path d="M263.69075,231.54974c0.90196,1.48843 0.97508,2.5777 0.79837,3.51923c-0.06685,0.3512 -0.16448,0.68613 -0.27283,1.00709c-1.61835,4.86127 -9.92538,10.61006 -16.4973,12.62658c-3.95808,1.2132 -7.28428,1.07455 -8.14311,-1.42912c-0.89327,-2.60325 -0.74286,-14.29441 -6.94325,-17.36664c-1.71601,-0.85205 -0.82211,-2.30731 0.44279,-2.82797c0.79921,-0.32817 1.74889,-0.28432 2.28694,0.53189c8.58371,6.5971 4.36228,17.11728 7.41382,19.51425c0.82224,0.64475 2.07936,0.65982 3.55344,0.24997c0.92868,-0.25798 1.94082,-0.68102 2.99088,-1.2309c-0.16644,-0.19058 -0.35727,-0.4118 -0.585,-0.67574c-2.68906,-3.13124 0.81165,-7.03532 3.59474,-5.69199c1.08579,0.52411 2.48702,1.33111 3.08409,2.16112c0.24076,-0.20549 0.47769,-0.41465 0.71185,-0.62091c-0.35488,-0.30951 -0.80032,-0.72588 -1.42938,-1.29545c-3.34935,-3.03369 -0.00868,-7.51518 3.20934,-6.38267c0.95361,0.33473 2.13624,0.82538 2.98429,1.39853c0.07676,-2.33636 -4.67913,-2.57323 -7.88605,-2.62928c-0.65613,-0.01161 -1.25338,-0.01508 -1.72466,-0.02807c0.18013,-4.37648 0.0541,-10.21512 -5.68351,-13.35856c-1.98683,-1.08842 -5.62199,0.06998 -5.78639,-0.03344c-0.00866,-0.00454 -0.01096,-0.02153 -0.02053,-0.02889c-0.32333,-0.25336 -0.232,-1.07427 -0.2383,-1.43243c1.96536,-1.35647 5.96481,-1.04173 7.6634,-0.07839c6.42862,3.64426 4.7598,9.25068 6.14473,12.7575c0.65723,-0.1078 1.35963,-0.23 2.07748,-0.34102c1.08145,-0.16773 2.20057,-0.30308 3.2674,-0.32351c2.10624,-0.03747 4.00589,0.3895 4.98678,2.00882zM254.1348,242.98544c-1.32599,-0.91671 -3.14991,-2.80412 -4.26347,-1.50675c-1.07029,1.24411 0.27345,2.6894 0.97065,3.79864c1.10777,-0.67828 2.22653,-1.45726 3.29283,-2.2919zM260.1986,236.7948c-1.56148,-0.85265 -3.7202,-2.54282 -4.7709,-1.10571c-1.39909,1.91418 0.68857,3.44016 1.83274,4.57235c1.23877,-1.21286 2.26553,-2.41157 2.93816,-3.46664z" fill="#272525"/><path d="M246.47531,226.42654c0.74073,0.81155 1.93922,2.498 0.96072,3.69455c-0.9453,1.15413 -2.67001,-0.53832 -2.34328,-1.51064c0.55079,0.87845 1.23216,1.49996 1.72887,0.7086c0.68786,-1.09432 -1.75789,-3.57232 -2.51876,-2.18636c-1.46999,2.67506 2.33706,4.74486 3.72555,3.86399c0.42704,-0.26843 0.82046,-0.60053 0.56307,-1.58425c-0.43711,-1.67441 -1.11494,-3.22296 -2.01847,-4.48481c1.06561,0.80331 2.53516,3.44934 2.69639,5.20301c0.31777,3.51585 -3.93269,3.08354 -5.32136,0.78727c-1.37387,-2.27298 -0.37621,-7.67177 2.52728,-4.49136z" fill="#272525"/></g><g><path d="M167.9503,182.4668c0.4861,-0.7891 -1.1708,-2.4488 -1.1708,-2.4488c-2.5885,-2.4968 -4.6096,-2.3703 -6.3578,-0.9203c-4.2862,3.5563 -1.5768,15.5323 -12.5439,14.0724c4.4089,-0.6318 6.2241,-3.332 7.06,-6.5866c0.0009,-0.0009 0.0009,-0.0009 0.001,-0.0028l0.0001,-0.0019c1.2907,-5.0299 0.2387,-11.3838 2.7628,-13.4992c3.2087,-2.9943 6.6334,1.5614 9.7375,4.6127c2.1458,2.1913 2.0925,0.5786 2.2166,-1.3135c0.002,-0.0018 1.0266,6.3758 -1.7055,6.088z" fill="#8395d4"/><path d="M167.4412,177.6904c-3.1041,-3.0512 -6.5289,-7.6069 -9.7375,-4.6126c-2.5241,2.1154 -1.4731,8.4702 -2.7629,13.4992c0,0.0019 -0.001,0.0028 -0.0011,0.0047c-0.8359,3.2546 -2.651,5.9548 -7.06,6.5866c10.9672,1.4598 8.2577,-10.5161 12.5439,-14.0724c1.7483,-1.45 3.7703,-1.5755 6.3579,0.9203c0,0 1.6559,1.6606 1.1707,2.4488c-0.4852,0.7882 -2.7321,-0.2878 -2.7321,-0.2878c-2.7124,-2.4509 -3.3902,7.0149 -8.2979,11.1585c-2.176,1.8382 -5.9043,2.1445 -9.8229,0.6855c0.1689,1.2043 -0.5042,2.573 0.2917,3.4671c1.1666,1.3089 0.2949,5.2146 -0.8615,4.9025c-1.3581,-2.2409 -1.7176,-5.1993 -0.5253,-8.013c-1.8873,1.0299 -6.1069,2.3832 -6.4506,1.4905c1.1701,-1.1543 3.9509,-2.4937 6.1324,-2.955c-3.0832,-0.6109 -5.3562,-2.6597 -6.4186,-5.1161c0.4162,-1.1234 4.104,0.4281 4.4953,2.1379c0.3178,1.3934 2.4009,1.4767 3.0777,2.8247c0.1302,-0.006 0.2759,-0.0265 0.3962,-0.0214c-0.0395,0.0441 -0.0612,0.0955 -0.0876,0.1458c11.8132,-5.5178 3.265,-17.3295 6.579,-21.7528c1.7823,-2.38 7.2226,-4.6525 12.4028,0.6039c0,0 3.6521,2.7488 3.5289,4.6418c-0.1232,1.893 -0.0727,3.5047 -2.2185,1.3133z" fill="#272525"/></g><g><g><path d="M270.8694,184.4094c-1.4621,4.5697 -8.3461,7.0944 -11.4847,1.6617c-1.5263,-2.6373 -1.651,-8.0057 0,-10.6096c4.413,-6.9698 14.268,0.252 11.4847,8.9479zM267.6572,176.6703c-1.4071,-1.7233 -3.4521,-1.7341 -4.5068,-1.4607c-3.3207,0.863 -2.8289,8.9639 -0.3484,10.6042c6.7889,4.4906 7.0114,-6.4981 4.8552,-9.1435z" fill="#272525"/><path d="M267.6572,176.6717c2.1548,2.644 1.9324,13.6341 -4.8552,9.1421c-2.4792,-1.6403 -2.9723,-9.7412 0.3484,-10.6042c1.0547,-0.2734 3.0997,-0.2626 4.5068,1.4621z" fill="#ffffff"/><path d="M267.0206,179.6936c0.5696,0 1.0855,0.3042 1.4594,0.7973c0.3739,0.4918 0.6057,1.1726 0.6057,1.9231c0,0.7504 -0.2318,1.4312 -0.6057,1.923c-0.3739,0.4932 -0.8898,0.7974 -1.4594,0.7974c-0.5695,0 -1.0855,-0.3042 -1.4594,-0.7974c-0.3738,-0.4918 -0.6057,-1.1726 -0.6057,-1.923c0,-0.7505 0.2319,-1.4313 0.6057,-1.9231c0.3739,-0.4931 0.8899,-0.7973 1.4594,-0.7973z" fill="#272525"/></g><g><path d="M269.6499,174.691c-1.0721,0.142 -9.4611,3.9533 -12.2083,5.8857c-0.2747,-1.6858 -0.7196,-2.7325 0.2761,-4.484c1.127,-1.9753 2.2299,-3.3569 4.6032,-3.8621c3.4668,-0.7465 5.0629,0.3082 7.4107,2.4537c-0.0254,0.0027 -0.0603,0.004 -0.0817,0.0067z" fill="#b7cbe7"/><path d="M270.5893,175.479c-1.5693,1.4955 -13.0606,7.6399 -14,6.0585c-0.1072,-0.1809 0.2278,-0.5239 0.8523,-0.9608c2.7445,-1.9351 11.1335,-5.7437 12.2083,-5.8857c0.0214,-0.0027 0.0549,-0.004 0.0817,-0.0067c0.4557,-0.0389 1.6564,0.0322 0.8577,0.7947z" fill="#272525"/></g></g><g><g><path d="M286.0017,183.1604c-1.4138,4.7815 -6.3721,5.4193 -8.7655,1.2691c-1.1619,-2.0129 -1.257,-6.1122 0,-8.0982c3.3649,-5.3189 10.7381,0.1514 8.7655,6.8291zM283.5507,177.2546c-1.0734,-1.316 -2.636,-1.3254 -3.4414,-1.1136c-2.5301,0.658 -2.1575,6.8398 -0.2653,8.0928c5.1835,3.428 5.355,-4.9624 3.7067,-6.9792z" fill="#272525"/><path d="M283.552,177.2546c1.647,2.0168 1.4755,10.4072 -3.708,6.9792c-1.8922,-1.253 -2.2661,-7.4348 0.2653,-8.0928c0.8054,-0.2118 2.368,-0.2024 3.4427,1.1136z" fill="#ffffff"/><path d="M283.5493,179.9321c0.3887,0 0.7411,0.2077 0.9957,0.5441c0.2547,0.3363 0.4128,0.8 0.4128,1.3119c0,0.512 -0.1581,0.9756 -0.4128,1.312c-0.2546,0.3364 -0.607,0.5441 -0.9957,0.5441c-0.3886,0 -0.741,-0.2077 -0.9956,-0.5441c-0.2547,-0.3364 -0.4128,-0.8 -0.4128,-1.312c0,-0.5119 0.1581,-0.9756 0.4128,-1.3119c0.2546,-0.3364 0.607,-0.5441 0.9956,-0.5441z" fill="#272525"/></g><g><path d="M285.4751,175.7229c-1.2517,0.2975 -7.9334,3.3435 -10.5091,5.0508c-0.9434,-1.4044 -0.3068,-4.5617 2.2929,-6.2583c2.6668,-1.7327 7.0208,-1.5813 8.2162,1.2075z" fill="#b7cbe7"/><path d="M286.4399,176.3969c-1.3963,1.3294 -11.6387,6.805 -12.4763,5.3953c-0.1085,-0.1823 0.3042,-0.5508 1.0024,-1.0185c2.5757,-1.7113 9.2574,-4.7533 10.5091,-5.0508c0.0402,-0.0067 0.0991,-0.0268 0.1273,-0.0309c0.339,-0.0455 1.5893,-0.0187 0.8375,0.7049z" fill="#272525"/></g></g></g></g></svg>